<svg width="161" height="91" viewBox="0 0 161 91" fill="none" xmlns="http://www.w3.org/2000/svg">
<path style="mix-blend-mode:multiply" opacity="0.4" d="M39.52 90.4C61.142 90.4 78.67 88.9808 78.67 87.23C78.67 85.4793 61.142 84.06 39.52 84.06C17.8981 84.06 0.369995 85.4793 0.369995 87.23C0.369995 88.9808 17.8981 90.4 39.52 90.4Z" fill="url(#paint0_radial)"/>
<path d="M43.03 67.45C36.09 69.45 29.14 67.45 22.54 63.2C10.95 55.7 8.41998 41.2 14.88 29.2C21.69 16.61 36.88 13.09 49.11 20.46C51.591 21.9433 53.8025 23.8368 55.65 26.06C56.9235 27.6237 58.6134 28.7952 60.5245 29.4393C62.4355 30.0834 64.4898 30.1738 66.45 29.7L66.79 29.61C67.8382 29.349 68.813 28.8518 69.6398 28.1566C70.4666 27.4614 71.1236 26.5864 71.5606 25.5985C71.9977 24.6106 72.2032 23.5358 72.1615 22.4564C72.1198 21.3769 71.8319 20.3212 71.32 19.37C68.2142 13.5714 63.5818 8.73248 57.9241 5.37683C52.2664 2.02119 45.7988 0.276576 39.221 0.331776C32.6432 0.386976 26.2057 2.23988 20.6051 5.69001C15.0045 9.14013 10.454 14.0561 7.44596 19.906C4.4379 25.756 3.08682 32.3171 3.53892 38.8795C3.99101 45.442 6.22911 51.7559 10.011 57.138C13.7928 62.5202 18.9745 66.7657 24.9953 69.4152C31.0161 72.0647 37.6468 73.0174 44.17 72.17C44.4932 72.1223 44.8033 72.0091 45.0813 71.8373C45.3592 71.6656 45.5992 71.4389 45.7865 71.1711C45.9737 70.9033 46.1043 70.6002 46.1703 70.2801C46.2362 69.9601 46.2361 69.63 46.17 69.31C46.096 68.976 45.9543 68.6607 45.7536 68.3836C45.5529 68.1066 45.2976 67.8737 45.0032 67.6993C44.7089 67.525 44.3819 67.4129 44.0425 67.37C43.703 67.3271 43.3585 67.3544 43.03 67.45Z" fill="url(#paint1_linear)"/>
<path style="mix-blend-mode:multiply" opacity="0.6" d="M43.03 67.45C36.09 69.45 29.14 67.45 22.54 63.2C10.95 55.7 8.41998 41.2 14.88 29.2C21.69 16.61 36.88 13.09 49.11 20.46C51.591 21.9433 53.8025 23.8368 55.65 26.06C56.9235 27.6237 58.6134 28.7952 60.5245 29.4393C62.4355 30.0834 64.4898 30.1738 66.45 29.7L66.79 29.61C67.8382 29.349 68.813 28.8518 69.6398 28.1566C70.4666 27.4614 71.1236 26.5864 71.5606 25.5985C71.9977 24.6106 72.2032 23.5358 72.1615 22.4564C72.1198 21.3769 71.8319 20.3212 71.32 19.37C68.2142 13.5714 63.5818 8.73248 57.9241 5.37683C52.2664 2.02119 45.7988 0.276576 39.221 0.331776C32.6432 0.386976 26.2057 2.23988 20.6051 5.69001C15.0045 9.14013 10.454 14.0561 7.44596 19.906C4.4379 25.756 3.08682 32.3171 3.53892 38.8795C3.99101 45.442 6.22911 51.7559 10.011 57.138C13.7928 62.5202 18.9745 66.7657 24.9953 69.4152C31.0161 72.0647 37.6468 73.0174 44.17 72.17C44.4932 72.1223 44.8033 72.0091 45.0813 71.8373C45.3592 71.6656 45.5992 71.4389 45.7865 71.1711C45.9737 70.9033 46.1043 70.6002 46.1703 70.2801C46.2362 69.9601 46.2361 69.63 46.17 69.31C46.096 68.976 45.9543 68.6607 45.7536 68.3836C45.5529 68.1066 45.2976 67.8737 45.0032 67.6993C44.7089 67.525 44.3819 67.4129 44.0425 67.37C43.703 67.3271 43.3585 67.3544 43.03 67.45Z" fill="url(#paint2_linear)"/>
<path d="M13.59 29.4C17.1381 23.5298 22.8622 19.2995 29.5152 17.6306C36.1683 15.9617 43.2113 16.9895 49.11 20.49C51.5911 21.9733 53.8025 23.8668 55.65 26.09C56.9251 27.6518 58.6151 28.8219 60.5256 29.4658C62.4362 30.1098 64.4897 30.2013 66.45 29.73L66.79 29.64C67.8382 29.379 68.813 28.8818 69.6398 28.1866C70.4666 27.4914 71.1236 26.6164 71.5606 25.6285C71.9977 24.6405 72.2032 23.5658 72.1615 22.4864C72.1198 21.4069 71.8319 20.3512 71.32 19.4C68.3751 13.8988 64.0535 9.25568 58.7775 5.92424C53.5015 2.5928 47.4515 0.687024 41.2186 0.393127C34.9857 0.0992292 28.7832 1.42726 23.2171 4.24747C17.651 7.06767 12.9117 11.2836 9.46226 16.4832C6.01284 21.6829 3.97129 27.6885 3.53709 33.9131C3.10289 40.1378 4.2909 46.3687 6.98503 51.9969C9.67916 57.6251 13.7873 62.4581 18.9079 66.0238C24.0286 69.5894 29.9867 71.7657 36.2 72.34C5.85999 66.88 7.81001 38.87 13.59 29.4Z" fill="url(#paint3_linear)"/>
<path style="mix-blend-mode:multiply" opacity="0.6" d="M13.59 29.4C17.1381 23.5298 22.8622 19.2995 29.5152 17.6306C36.1683 15.9617 43.2113 16.9895 49.11 20.49C51.5911 21.9733 53.8025 23.8668 55.65 26.09C56.9251 27.6518 58.6151 28.8219 60.5256 29.4658C62.4362 30.1098 64.4897 30.2013 66.45 29.73L66.79 29.64C67.8382 29.379 68.813 28.8818 69.6398 28.1866C70.4666 27.4914 71.1236 26.6164 71.5606 25.6285C71.9977 24.6405 72.2032 23.5658 72.1615 22.4864C72.1198 21.4069 71.8319 20.3512 71.32 19.4C68.3751 13.8988 64.0535 9.25568 58.7775 5.92424C53.5015 2.5928 47.4515 0.687024 41.2186 0.393127C34.9857 0.0992292 28.7832 1.42726 23.2171 4.24747C17.651 7.06767 12.9117 11.2836 9.46226 16.4832C6.01284 21.6829 3.97129 27.6885 3.53709 33.9131C3.10289 40.1378 4.2909 46.3687 6.98503 51.9969C9.67916 57.6251 13.7873 62.4581 18.9079 66.0238C24.0286 69.5894 29.9867 71.7657 36.2 72.34C5.85999 66.88 7.81001 38.87 13.59 29.4Z" fill="url(#paint4_linear)"/>
<path d="M30.49 11.85C45.49 11.36 52.61 20 56.3 25.66C57.3373 27.3315 58.8815 28.6279 60.7073 29.36C62.5332 30.0922 64.5453 30.2218 66.45 29.73L66.79 29.64C67.8382 29.379 68.813 28.8819 69.6398 28.1866C70.4666 27.4914 71.1236 26.6164 71.5607 25.6285C71.9977 24.6406 72.2032 23.5658 72.1615 22.4864C72.1198 21.4069 71.832 20.3513 71.32 19.4C67.4717 12.2192 61.3058 6.55258 53.8263 3.32297C46.3468 0.0933599 37.9942 -0.509037 30.1286 1.61388C22.263 3.73679 15.3478 8.45996 10.509 15.0143C5.67011 21.5686 3.19262 29.5681 3.47998 37.71C3.18998 22.8 15.46 12.34 30.49 11.85Z" fill="url(#paint5_linear)"/>
<path d="M66.79 28.31L66.45 28.39C64.5453 28.885 62.5322 28.7569 60.7056 28.0245C58.879 27.2921 57.335 25.9938 56.3 24.32C52.61 18.67 45.51 10.03 30.49 10.51C15.47 10.99 3.19 21.51 3.49 36.37C3.49 36.16 3.49 35.94 3.49 35.73C3.49 36.39 3.49 37.05 3.49 37.73C3.2 22.82 15.49 12.36 30.49 11.87C45.49 11.38 52.61 20.02 56.3 25.68C57.3373 27.3515 58.8815 28.6479 60.7073 29.38C62.5332 30.1122 64.5453 30.2418 66.45 29.75L66.79 29.66C68.4363 29.2488 69.8805 28.2608 70.8604 26.8755C71.8402 25.4901 72.2907 23.7993 72.13 22.11C71.9897 23.5686 71.401 24.9479 70.4447 26.0581C69.4885 27.1684 68.2116 27.9551 66.79 28.31Z" fill="url(#paint6_linear)"/>
<path d="M53.44 67.7C53.44 68.2163 53.2869 68.7208 53.0001 69.1501C52.7133 69.5793 52.3057 69.9138 51.8288 70.1114C51.3519 70.3089 50.8271 70.3606 50.3208 70.2599C49.8145 70.1592 49.3494 69.9106 48.9844 69.5456C48.6194 69.1806 48.3708 68.7155 48.2701 68.2092C48.1694 67.7029 48.2211 67.1781 48.4187 66.7012C48.6162 66.2243 48.9507 65.8167 49.3799 65.5299C49.8091 65.2431 50.3138 65.09 50.83 65.09C51.5222 65.09 52.186 65.365 52.6755 65.8545C53.165 66.344 53.44 67.0078 53.44 67.7Z" fill="url(#paint7_linear)"/>
<path d="M43.03 67.45C36.09 69.45 29.14 67.45 22.54 63.2C19.1322 61.0421 16.3233 58.06 14.3727 54.5294C12.4221 50.9988 11.3929 47.0336 11.38 43C11.2357 47.1875 12.1865 51.3401 14.1384 55.0476C16.0904 58.7551 18.976 61.8892 22.51 64.14C29.11 68.41 36.06 70.41 43 68.39C43.3338 68.2883 43.6852 68.2576 44.0315 68.2998C44.3779 68.3421 44.7115 68.4564 45.0111 68.6353C45.3106 68.8143 45.5693 69.0539 45.7706 69.3389C45.972 69.6239 46.1114 69.9479 46.18 70.29C46.2398 69.9863 46.2398 69.6737 46.18 69.37C46.1133 69.0295 45.9763 68.7066 45.778 68.4219C45.5796 68.1372 45.3242 67.8968 45.0279 67.7162C44.7316 67.5356 44.4009 67.4187 44.057 67.3729C43.713 67.327 43.3633 67.3533 43.03 67.45Z" fill="url(#paint8_linear)"/>
<path d="M58.85 64.46C58.85 64.8382 58.7378 65.2079 58.5274 65.5222C58.3171 65.8365 58.0182 66.0813 57.6686 66.2256C57.319 66.3698 56.9345 66.4071 56.5637 66.3326C56.1929 66.2581 55.8526 66.0752 55.5859 65.807C55.3192 65.5389 55.1381 65.1976 55.0655 64.8265C54.993 64.4553 55.0322 64.071 55.1783 63.7221C55.3244 63.3733 55.5708 63.0757 55.8862 62.8671C56.2016 62.6584 56.5719 62.548 56.95 62.55C57.2004 62.55 57.4483 62.5995 57.6795 62.6956C57.9106 62.7917 58.1205 62.9326 58.2971 63.11C58.4736 63.2875 58.6134 63.4982 58.7083 63.7299C58.8032 63.9615 58.8513 64.2097 58.85 64.46Z" fill="url(#paint9_linear)"/>
<path d="M61.24 62.55C61.9193 62.55 62.47 61.9993 62.47 61.32C62.47 60.6407 61.9193 60.09 61.24 60.09C60.5607 60.09 60.01 60.6407 60.01 61.32C60.01 61.9993 60.5607 62.55 61.24 62.55Z" fill="url(#paint10_linear)"/>
<path d="M13.59 29.4C15.8733 25.6418 19.0664 22.5194 22.8747 20.3207C26.683 18.1221 30.9837 16.9182 35.38 16.82C30.8134 16.7432 26.3063 17.8641 22.3077 20.0713C18.3091 22.2785 14.9587 25.4949 12.59 29.4C6.94005 38.64 4.95005 65.55 33.09 71.91C34.14 72.1 35.19 72.25 36.24 72.34C5.86001 66.88 7.81005 38.87 13.59 29.4Z" fill="url(#paint11_linear)"/>
<path d="M32.61 48.5V38.79H29.99C29.7248 38.79 29.4704 38.6847 29.2829 38.4971C29.0954 38.3096 28.99 38.0552 28.99 37.79C28.99 37.5248 29.0954 37.2704 29.2829 37.0829C29.4704 36.8954 29.7248 36.79 29.99 36.79H37.17C37.4352 36.79 37.6896 36.8954 37.8771 37.0829C38.0647 37.2704 38.17 37.5248 38.17 37.79C38.17 38.0552 38.0647 38.3096 37.8771 38.4971C37.6896 38.6847 37.4352 38.79 37.17 38.79H34.54V48.5C34.54 48.7652 34.4347 49.0196 34.2471 49.2071C34.0596 49.3947 33.8052 49.5 33.54 49.5C33.4122 49.4989 33.286 49.4718 33.169 49.4202C33.052 49.3687 32.9468 49.2938 32.8597 49.2002C32.7727 49.1066 32.7057 48.9962 32.6627 48.8758C32.6198 48.7554 32.6018 48.6276 32.61 48.5Z" fill="#54535B"/>
<path d="M39.72 48.5V37.8C39.72 37.5348 39.8253 37.2804 40.0129 37.0929C40.2004 36.9054 40.4548 36.8 40.72 36.8C40.9852 36.8 41.2396 36.9054 41.4271 37.0929C41.6147 37.2804 41.72 37.5348 41.72 37.8V42.19H47.11V37.8C47.11 37.5348 47.2154 37.2804 47.4029 37.0929C47.5904 36.9054 47.8448 36.8 48.11 36.8C48.3752 36.8 48.6296 36.9054 48.8171 37.0929C49.0047 37.2804 49.11 37.5348 49.11 37.8V48.5C49.11 48.7652 49.0047 49.0196 48.8171 49.2071C48.6296 49.3947 48.3752 49.5 48.11 49.5C47.8448 49.5 47.5904 49.3947 47.4029 49.2071C47.2154 49.0196 47.11 48.7652 47.11 48.5V44.16H41.68V48.5C41.68 48.7652 41.5746 49.0196 41.3871 49.2071C41.1995 49.3947 40.9452 49.5 40.68 49.5C40.4218 49.4897 40.1776 49.3798 39.9986 49.1933C39.8196 49.0069 39.7198 48.7584 39.72 48.5Z" fill="#54535B"/>
<path d="M51.6 48.49V37.82C51.6 37.5548 51.7054 37.3004 51.8929 37.1129C52.0804 36.9254 52.3348 36.82 52.6 36.82H57.87C58.1352 36.82 58.3896 36.9254 58.5771 37.1129C58.7646 37.3004 58.87 37.5548 58.87 37.82C58.87 38.0852 58.7646 38.3396 58.5771 38.5271C58.3896 38.7146 58.1352 38.82 57.87 38.82H53.58V42.23H56.71C56.9177 42.2906 57.1002 42.4169 57.23 42.59C57.3598 42.7631 57.43 42.9736 57.43 43.19C57.43 43.4064 57.3598 43.6169 57.23 43.79C57.1002 43.9631 56.9177 44.0894 56.71 44.15H53.62V47.53H57.91C58.1753 47.53 58.4296 47.6354 58.6171 47.8229C58.8047 48.0104 58.91 48.2648 58.91 48.53C58.9107 48.7835 58.8149 49.0278 58.6423 49.2135C58.4696 49.3991 58.2329 49.5123 57.98 49.53H52.59C52.4561 49.5288 52.3238 49.5006 52.2009 49.4473C52.0781 49.394 51.9672 49.3165 51.8749 49.2195C51.7826 49.1225 51.7107 49.008 51.6635 48.8827C51.6162 48.7573 51.5946 48.6238 51.6 48.49Z" fill="#54535B"/>
<path d="M64.19 43.18C64.1687 41.8961 64.5347 40.6355 65.2404 39.5626C65.946 38.4898 66.9585 37.6544 68.1459 37.1654C69.3333 36.6765 70.6404 36.5566 71.8969 36.8214C73.1534 37.0862 74.301 37.7234 75.19 38.65C75.2828 38.7371 75.3564 38.8426 75.4063 38.9596C75.4563 39.0766 75.4813 39.2028 75.48 39.33C75.48 39.5952 75.3747 39.8496 75.1872 40.0371C74.9996 40.2247 74.7452 40.33 74.48 40.33C74.3553 40.3301 74.2319 40.3054 74.1169 40.2573C74.0019 40.2092 73.8976 40.1388 73.81 40.05C73.3904 39.6336 72.8925 39.3043 72.345 39.0812C71.7975 38.858 71.2112 38.7455 70.62 38.75C69.4776 38.8042 68.3999 39.2962 67.6106 40.1238C66.8213 40.9515 66.3809 42.0513 66.3809 43.195C66.3809 44.3387 66.8213 45.4385 67.6106 46.2662C68.3999 47.0938 69.4776 47.5858 70.62 47.64C71.4203 47.7114 72.2213 47.5116 72.8943 47.0727C73.5672 46.6337 74.0729 45.9812 74.33 45.22H72.25C71.9848 45.22 71.7305 45.1147 71.5429 44.9271C71.3554 44.7396 71.25 44.4852 71.25 44.22C71.25 43.9548 71.3554 43.7004 71.5429 43.5129C71.7305 43.3254 71.9848 43.22 72.25 43.22H75.49C75.7552 43.22 76.0096 43.3254 76.1971 43.5129C76.3846 43.7004 76.49 43.9548 76.49 44.22C76.4022 45.7028 75.738 47.0925 74.6393 48.0922C73.5406 49.0918 72.0945 49.6222 70.61 49.57C69.768 49.5753 68.9332 49.4138 68.1539 49.0949C67.3746 48.7761 66.6661 48.3061 66.0692 47.712C65.4724 47.118 64.9991 46.4117 64.6766 45.6339C64.3541 44.856 64.1887 44.0221 64.19 43.18Z" fill="#54535B"/>
<path d="M78.38 48.5V37.8C78.38 37.5348 78.4854 37.2804 78.6729 37.0929C78.8604 36.9054 79.1148 36.8 79.38 36.8C79.6452 36.8 79.8996 36.9054 80.0871 37.0929C80.2746 37.2804 80.38 37.5348 80.38 37.8V48.5C80.38 48.7652 80.2746 49.0196 80.0871 49.2071C79.8996 49.3947 79.6452 49.5 79.38 49.5C79.1148 49.5 78.8604 49.3947 78.6729 49.2071C78.4854 49.0196 78.38 48.7652 78.38 48.5Z" fill="#54535B"/>
<path d="M85.38 48.5V38.79H82.75C82.4848 38.79 82.2304 38.6847 82.0429 38.4971C81.8554 38.3096 81.75 38.0552 81.75 37.79C81.75 37.5248 81.8554 37.2704 82.0429 37.0829C82.2304 36.8954 82.4848 36.79 82.75 36.79H89.94C90.2052 36.79 90.4596 36.8954 90.6471 37.0829C90.8346 37.2704 90.94 37.5248 90.94 37.79C90.94 38.0552 90.8346 38.3096 90.6471 38.4971C90.4596 38.6847 90.2052 38.79 89.94 38.79H87.3V48.5C87.3 48.7652 87.1947 49.0196 87.0071 49.2071C86.8196 49.3947 86.5652 49.5 86.3 49.5C86.1726 49.499 86.0468 49.4718 85.9303 49.4202C85.8138 49.3685 85.7092 49.2935 85.6229 49.1997C85.5367 49.1059 85.4706 48.9955 85.4288 48.8751C85.387 48.7547 85.3704 48.6271 85.38 48.5Z" fill="#54535B"/>
<path d="M96.32 47.16C96.238 46.9916 96.1936 46.8073 96.19 46.62C96.2077 46.3671 96.3209 46.1304 96.5065 45.9577C96.6922 45.7851 96.9365 45.6894 97.19 45.69C97.3792 45.6984 97.5629 45.7564 97.7227 45.8582C97.8824 45.96 98.0125 46.102 98.1 46.27C98.3842 46.7063 98.777 47.0611 99.2399 47.2996C99.7028 47.538 100.22 47.6519 100.74 47.63C101.9 47.63 103.11 46.98 103.11 45.82C103.11 44.66 101.88 44.33 100.76 44.04C98.38 43.58 96.54 42.53 96.54 40.39C96.5718 39.8775 96.7045 39.3763 96.9305 38.9152C97.1565 38.4541 97.4713 38.0421 97.8569 37.703C98.2425 37.3639 98.6912 37.1042 99.1774 36.939C99.6636 36.7737 100.178 36.7061 100.69 36.74C101.424 36.7032 102.155 36.8537 102.814 37.1774C103.474 37.501 104.04 37.9871 104.46 38.59C104.527 38.7055 104.561 38.8367 104.56 38.97C104.559 39.0891 104.534 39.2067 104.487 39.316C104.44 39.4254 104.371 39.5243 104.286 39.6071C104.2 39.6899 104.099 39.7548 103.988 39.7983C103.877 39.8417 103.759 39.8627 103.64 39.86C103.428 39.8732 103.218 39.8092 103.05 39.68C102.757 39.352 102.396 39.0924 101.991 38.9196C101.587 38.7468 101.15 38.665 100.71 38.68C99.53 38.68 98.52 39.31 98.51 40.34C98.5 41.37 99.84 41.79 101.38 42.12C103.23 42.62 105.07 43.48 105.07 45.68C105.07 47.88 103.12 49.57 100.67 49.57C99.7932 49.6084 98.9229 49.4036 98.1553 48.9783C97.3876 48.5529 96.7524 47.9237 96.32 47.16Z" fill="#54535B"/>
<path d="M106.83 48.49V37.82C106.83 37.5548 106.935 37.3004 107.123 37.1129C107.31 36.9254 107.565 36.82 107.83 36.82H113.1C113.365 36.82 113.62 36.9254 113.807 37.1129C113.995 37.3004 114.1 37.5548 114.1 37.82C114.1 38.0852 113.995 38.3396 113.807 38.5271C113.62 38.7146 113.365 38.82 113.1 38.82H108.81V42.23H111.95C112.158 42.2906 112.34 42.4169 112.47 42.59C112.6 42.7631 112.67 42.9736 112.67 43.19C112.67 43.4064 112.6 43.6169 112.47 43.79C112.34 43.9631 112.158 44.0894 111.95 44.15H108.85V47.53H113.14C113.405 47.53 113.66 47.6354 113.847 47.8229C114.035 48.0104 114.14 48.2648 114.14 48.53C114.141 48.7835 114.045 49.0278 113.872 49.2135C113.7 49.3991 113.463 49.5123 113.21 49.53H107.82C107.686 49.5288 107.554 49.5006 107.431 49.4473C107.308 49.394 107.197 49.3165 107.105 49.2195C107.013 49.1225 106.941 49.008 106.893 48.8827C106.846 48.7573 106.825 48.6238 106.83 48.49Z" fill="#54535B"/>
<path d="M114.77 48.54C114.768 48.3843 114.802 48.2302 114.87 48.09L119.5 37.44C119.584 37.2762 119.711 37.1388 119.868 37.0428C120.025 36.9468 120.206 36.896 120.39 36.896C120.574 36.896 120.755 36.9468 120.912 37.0428C121.069 37.1388 121.196 37.2762 121.28 37.44L125.86 48.1C125.923 48.242 125.957 48.3949 125.96 48.55C125.96 48.6783 125.934 48.8052 125.883 48.9229C125.832 49.0405 125.757 49.1463 125.663 49.2337C125.569 49.321 125.458 49.388 125.337 49.4304C125.216 49.4728 125.088 49.4897 124.96 49.48C124.769 49.4777 124.583 49.421 124.424 49.3164C124.264 49.2119 124.138 49.0639 124.06 48.89L122.86 46H117.86L116.64 48.92C116.575 49.0998 116.455 49.2545 116.297 49.3622C116.139 49.4699 115.951 49.5251 115.76 49.52C115.629 49.5271 115.498 49.5067 115.375 49.4601C115.253 49.4135 115.141 49.3418 115.048 49.2495C114.955 49.1571 114.882 49.0463 114.834 48.9241C114.786 48.802 114.764 48.6711 114.77 48.54ZM122.03 43.99L120.38 40L118.71 44L122.03 43.99Z" fill="#54535B"/>
<path d="M127.45 48.5V37.8C127.45 37.5348 127.555 37.2804 127.743 37.0929C127.93 36.9054 128.185 36.8 128.45 36.8H131.76C132.256 36.7934 132.749 36.8851 133.21 37.0699C133.67 37.2546 134.09 37.5287 134.444 37.8764C134.798 38.2241 135.08 38.6385 135.273 39.0956C135.467 39.5528 135.567 40.0437 135.57 40.54C135.57 41.3112 135.329 42.0631 134.881 42.6906C134.433 43.3181 133.799 43.7899 133.07 44.04L135.41 48.04C135.497 48.1813 135.542 48.3442 135.54 48.51C135.54 48.7752 135.435 49.0296 135.247 49.2171C135.06 49.4047 134.805 49.51 134.54 49.51C134.367 49.5072 134.198 49.4597 134.049 49.3721C133.9 49.2845 133.776 49.1597 133.69 49.01L130.94 44.33H129.38V48.54C129.38 48.8052 129.275 49.0596 129.087 49.2471C128.9 49.4346 128.645 49.54 128.38 49.54C128.115 49.54 127.86 49.4346 127.673 49.2471C127.485 49.0596 127.38 48.8052 127.38 48.54L127.45 48.5ZM131.75 42.32C132.229 42.315 132.687 42.1247 133.028 41.789C133.369 41.4534 133.567 40.9985 133.58 40.52C133.574 40.2849 133.521 40.0534 133.425 39.8387C133.329 39.624 133.191 39.4303 133.021 39.2687C132.85 39.1071 132.649 38.9808 132.429 38.8969C132.209 38.8131 131.975 38.7734 131.74 38.78H129.38V42.32H131.75Z" fill="#54535B"/>
<path d="M136.81 43.18C136.789 41.8961 137.155 40.6355 137.86 39.5626C138.566 38.4898 139.579 37.6544 140.766 37.1654C141.953 36.6765 143.26 36.5566 144.517 36.8214C145.773 37.0862 146.921 37.7234 147.81 38.65C147.903 38.7371 147.976 38.8426 148.026 38.9596C148.076 39.0766 148.101 39.2028 148.1 39.33C148.092 39.5198 148.03 39.7035 147.922 39.8594C147.813 40.0154 147.663 40.1372 147.487 40.2107C147.312 40.2841 147.12 40.3061 146.932 40.2741C146.745 40.2422 146.571 40.1575 146.43 40.03C145.807 39.4086 145.014 38.9857 144.151 38.8148C143.288 38.6439 142.394 38.7326 141.582 39.0697C140.769 39.4068 140.075 39.9771 139.586 40.7087C139.098 41.4403 138.837 42.3003 138.837 43.18C138.837 44.0597 139.098 44.9197 139.586 45.6513C140.075 46.3829 140.769 46.9533 141.582 47.2904C142.394 47.6274 143.288 47.7161 144.151 47.5452C145.014 47.3743 145.807 46.9514 146.43 46.33C146.617 46.155 146.864 46.0583 147.12 46.06C147.249 46.0517 147.379 46.0703 147.501 46.1144C147.622 46.1586 147.734 46.2274 147.828 46.3166C147.921 46.4058 147.996 46.5134 148.046 46.6327C148.097 46.7521 148.122 46.8805 148.12 47.01C148.119 47.2675 148.019 47.5146 147.84 47.7C146.946 48.5997 145.805 49.2135 144.561 49.4635C143.318 49.7135 142.028 49.5884 140.856 49.1041C139.684 48.6198 138.682 47.7981 137.978 46.7434C137.273 45.6886 136.898 44.4483 136.9 43.18H136.81Z" fill="#54535B"/>
<path d="M149.77 48.5V37.8C149.77 37.5348 149.875 37.2804 150.063 37.0929C150.25 36.9054 150.505 36.8 150.77 36.8C151.035 36.8 151.29 36.9054 151.477 37.0929C151.665 37.2804 151.77 37.5348 151.77 37.8V42.19H157.16V37.8C157.16 37.5348 157.265 37.2804 157.453 37.0929C157.64 36.9054 157.895 36.8 158.16 36.8C158.425 36.8 158.68 36.9054 158.867 37.0929C159.055 37.2804 159.16 37.5348 159.16 37.8V48.5C159.16 48.7652 159.055 49.0196 158.867 49.2071C158.68 49.3947 158.425 49.5 158.16 49.5C157.895 49.5 157.64 49.3947 157.453 49.2071C157.265 49.0196 157.16 48.7652 157.16 48.5V44.16H151.77V48.5C151.77 48.7652 151.665 49.0196 151.477 49.2071C151.29 49.3947 151.035 49.5 150.77 49.5C150.505 49.5 150.25 49.3947 150.063 49.2071C149.875 49.0196 149.77 48.7652 149.77 48.5Z" fill="#54535B"/>
<path d="M77.3 56.85H76.01V53.4H77.25C77.97 53.4 78.34 53.8 78.34 54.28C78.3435 54.46 78.2861 54.6359 78.1772 54.7793C78.0684 54.9226 77.9143 55.0251 77.74 55.07C77.9331 55.1133 78.1057 55.221 78.2294 55.3755C78.353 55.5301 78.4202 55.7221 78.42 55.92C78.38 56.44 78.01 56.85 77.3 56.85ZM77.21 53.77H76.46V54.89H77.22C77.64 54.89 77.88 54.68 77.88 54.33C77.88 53.98 77.65 53.77 77.21 53.77ZM77.21 55.26H76.43V56.48H77.23C77.67 56.48 77.94 56.26 77.94 55.88C77.94 55.5 77.68 55.26 77.24 55.26H77.21Z" fill="#6C6C75"/>
<path d="M81.51 53.4H81.96V55.58C81.96 56.22 82.3 56.49 82.81 56.49C83.32 56.49 83.66 56.22 83.66 55.58V53.4H84.11V55.58C84.11 55.9248 83.973 56.2555 83.7292 56.4993C83.4855 56.7431 83.1548 56.88 82.81 56.88C82.4652 56.88 82.1345 56.7431 81.8907 56.4993C81.6469 56.2555 81.51 55.9248 81.51 55.58V53.4Z" fill="#6C6C75"/>
<path d="M88.44 56.89C87.74 56.89 87.25 56.5 87.24 55.89H87.72C87.7287 55.9752 87.7543 56.0578 87.7954 56.1329C87.8365 56.208 87.8923 56.2741 87.9595 56.3273C88.0266 56.3804 88.1037 56.4195 88.1863 56.4424C88.2688 56.4652 88.3551 56.4712 88.44 56.46C88.87 56.46 89.13 56.22 89.13 55.89C89.13 54.96 87.26 55.55 87.26 54.27C87.26 53.7 87.72 53.32 88.41 53.32C88.543 53.3004 88.6786 53.3078 88.8087 53.3418C88.9387 53.3757 89.0606 53.4356 89.1671 53.5177C89.2735 53.5999 89.3622 53.7026 89.428 53.8199C89.4938 53.9371 89.5353 54.0664 89.55 54.2H89.06C89.0288 54.0492 88.9433 53.915 88.8199 53.8229C88.6964 53.7308 88.5435 53.687 88.39 53.7C88.3083 53.6872 88.2248 53.6919 88.1451 53.714C88.0654 53.7361 87.9914 53.7749 87.9279 53.828C87.8645 53.881 87.8131 53.947 87.7772 54.0215C87.7414 54.096 87.7219 54.1774 87.72 54.26C87.72 55.15 89.58 54.59 89.58 55.87C89.5844 56.0157 89.5569 56.1605 89.4994 56.2944C89.4419 56.4283 89.3558 56.548 89.2473 56.6452C89.1387 56.7424 89.0102 56.8146 88.8707 56.8569C88.7313 56.8992 88.5843 56.9105 88.44 56.89Z" fill="#6C6C75"/>
<path d="M94.28 53.36C94.6178 53.3387 94.9536 53.4237 95.2406 53.603C95.5276 53.7824 95.7512 54.0471 95.88 54.36H95.38C95.2918 54.1557 95.1427 53.9835 94.9529 53.8672C94.7632 53.7508 94.5421 53.6959 94.32 53.71C93.9567 53.71 93.6082 53.8544 93.3513 54.1113C93.0943 54.3682 92.95 54.7167 92.95 55.08C92.95 55.4434 93.0943 55.7918 93.3513 56.0488C93.6082 56.3057 93.9567 56.45 94.32 56.45C94.5408 56.4635 94.7604 56.4095 94.9497 56.2952C95.139 56.1808 95.2891 56.0116 95.38 55.81H95.92C95.7911 56.1229 95.5676 56.3876 95.2806 56.567C94.9937 56.7463 94.6577 56.8313 94.32 56.81C93.8532 56.81 93.4056 56.6246 93.0755 56.2945C92.7454 55.9645 92.56 55.5168 92.56 55.05C92.56 54.5832 92.7454 54.1356 93.0755 53.8055C93.4056 53.4754 93.8532 53.29 94.32 53.29L94.28 53.36Z" fill="#6C6C75"/>
<path d="M101.07 56.08H99.56L99.28 56.85H98.81L100.06 53.42H100.58L101.82 56.85H101.38L101.07 56.08ZM100.31 53.97L99.69 55.72H100.94L100.31 53.97Z" fill="#6C6C75"/>
<path d="M105.94 56.89C105.24 56.89 104.75 56.5 104.74 55.89H105.22C105.229 55.9752 105.254 56.0578 105.295 56.1329C105.337 56.208 105.392 56.2741 105.459 56.3273C105.527 56.3804 105.604 56.4195 105.686 56.4424C105.769 56.4652 105.855 56.4712 105.94 56.46C106.37 56.46 106.63 56.22 106.63 55.89C106.63 54.96 104.76 55.55 104.76 54.27C104.76 53.7 105.22 53.32 105.91 53.32C106.043 53.3004 106.179 53.3078 106.309 53.3418C106.439 53.3757 106.561 53.4356 106.667 53.5177C106.773 53.5999 106.862 53.7026 106.928 53.8199C106.994 53.9371 107.035 54.0664 107.05 54.2H106.55C106.521 54.05 106.438 53.916 106.316 53.8237C106.194 53.7314 106.042 53.6874 105.89 53.7C105.51 53.7 105.22 53.89 105.22 54.26C105.22 55.15 107.08 54.59 107.08 55.87C107.084 56.0157 107.057 56.1605 106.999 56.2944C106.942 56.4283 106.856 56.548 106.747 56.6452C106.639 56.7424 106.51 56.8146 106.371 56.8569C106.231 56.8992 106.084 56.9105 105.94 56.89Z" fill="#6C6C75"/>
<path d="M116.74 53.4V56.85H116.29L114.48 54.1V56.85H114.02V53.4H114.48L116.29 56.14V53.4H116.74Z" fill="#6C6C75"/>
<path d="M121.55 56.89C121.198 56.898 120.852 56.8009 120.556 56.6114C120.26 56.4218 120.027 56.1482 119.886 55.8255C119.746 55.5029 119.706 55.1458 119.769 54.7999C119.833 54.4539 119.998 54.1348 120.244 53.8833C120.49 53.6317 120.805 53.4591 121.15 53.3875C121.494 53.3159 121.852 53.3486 122.178 53.4813C122.504 53.614 122.782 53.8407 122.979 54.1326C123.175 54.4245 123.28 54.7682 123.28 55.12C123.288 55.3513 123.249 55.5818 123.166 55.7975C123.082 56.0133 122.956 56.2099 122.794 56.3754C122.632 56.5409 122.439 56.6718 122.225 56.7603C122.011 56.8487 121.781 56.8929 121.55 56.89ZM121.55 56.49C121.824 56.5101 122.098 56.4471 122.336 56.3093C122.574 56.1715 122.766 55.9652 122.885 55.7173C123.004 55.4694 123.046 55.1913 123.005 54.9194C122.964 54.6474 122.842 54.394 122.655 54.1923C122.468 53.9906 122.224 53.8498 121.956 53.7883C121.688 53.7268 121.408 53.7475 121.151 53.8476C120.895 53.9477 120.675 54.1226 120.52 54.3495C120.364 54.5765 120.281 54.8449 120.28 55.12C120.265 55.2953 120.286 55.4719 120.343 55.6384C120.4 55.8049 120.491 55.9576 120.611 56.0867C120.731 56.2158 120.876 56.3183 121.038 56.3878C121.2 56.4573 121.374 56.4921 121.55 56.49Z" fill="#6C6C75"/>
<path d="M133.31 54.4H132.77C132.68 54.2115 132.538 54.0523 132.361 53.9409C132.184 53.8294 131.979 53.7702 131.77 53.77C131.412 53.77 131.069 53.9122 130.815 54.1654C130.562 54.4186 130.42 54.762 130.42 55.12C130.42 55.478 130.562 55.8214 130.815 56.0746C131.069 56.3278 131.412 56.47 131.77 56.47C131.922 56.4767 132.075 56.4533 132.218 56.4011C132.361 56.349 132.493 56.269 132.605 56.1659C132.718 56.0628 132.809 55.9386 132.873 55.8003C132.937 55.662 132.974 55.5124 132.98 55.36H131.6V55H133.38V55.35C133.345 55.7726 133.151 56.1662 132.837 56.4519C132.524 56.7375 132.114 56.894 131.69 56.89C131.223 56.89 130.776 56.7046 130.445 56.3745C130.115 56.0445 129.93 55.5968 129.93 55.13C129.93 54.6632 130.115 54.2156 130.445 53.8855C130.776 53.5554 131.223 53.37 131.69 53.37C132.034 53.3512 132.375 53.4405 132.665 53.6252C132.956 53.8099 133.181 54.0808 133.31 54.4Z" fill="#6C6C75"/>
<path d="M136.48 53.4H136.93V56.85H136.48V53.4Z" fill="#6C6C75"/>
<path d="M139.96 53.4H142.3V53.77H141.38V56.85H140.93V53.77H139.98L139.96 53.4Z" fill="#6C6C75"/>
<path d="M147.54 55.29H145.78V56.85H145.38V53.4H145.83V54.92H147.59V53.4H148.04V56.85H147.59L147.54 55.29Z" fill="#6C6C75"/>
<path d="M151.22 53.4H151.67V55.58C151.651 55.6986 151.66 55.8199 151.695 55.9346C151.73 56.0494 151.791 56.1546 151.873 56.2424C151.955 56.3301 152.056 56.398 152.168 56.4409C152.28 56.4838 152.4 56.5006 152.52 56.49C153.03 56.49 153.37 56.22 153.37 55.58V53.4H153.82V55.58C153.82 55.9248 153.683 56.2555 153.439 56.4993C153.195 56.7431 152.865 56.88 152.52 56.88C152.175 56.88 151.845 56.7431 151.601 56.4993C151.357 56.2555 151.22 55.9248 151.22 55.58V53.4Z" fill="#6C6C75"/>
<path d="M158.38 56.85H157.09V53.4H158.33C159.06 53.4 159.42 53.8 159.42 54.28C159.423 54.46 159.366 54.6359 159.257 54.7793C159.148 54.9226 158.994 55.0251 158.82 55.07C159.014 55.1115 159.188 55.2188 159.312 55.3737C159.436 55.5287 159.502 55.7217 159.5 55.92C159.46 56.44 159.05 56.85 158.38 56.85ZM158.29 53.77H157.54V54.89H158.3C158.72 54.89 158.96 54.68 158.96 54.33C158.96 53.98 158.69 53.77 158.25 53.77H158.29ZM158.29 55.26H157.5V56.48H158.3C158.75 56.48 159.01 56.26 159.01 55.88C159.01 55.5 158.73 55.26 158.29 55.26Z" fill="#6C6C75"/>
<path d="M160.03 51.27H29.17C29.0798 51.27 28.9933 51.3058 28.9296 51.3696C28.8658 51.4334 28.83 51.5198 28.83 51.61C28.83 51.7011 28.8655 51.7887 28.929 51.854C28.9924 51.9194 29.0789 51.9574 29.17 51.96H160.03C160.121 51.9574 160.208 51.9194 160.271 51.854C160.335 51.7887 160.37 51.7011 160.37 51.61C160.37 51.5654 160.361 51.5212 160.344 51.4799C160.327 51.4387 160.302 51.4012 160.27 51.3696C160.239 51.338 160.201 51.313 160.16 51.2959C160.119 51.2788 160.075 51.27 160.03 51.27Z" fill="#D3D3DD"/>
<defs>
<radialGradient id="paint0_radial" cx="0" cy="0" r="1" gradientUnits="userSpaceOnUse" gradientTransform="translate(39.52 87.7005) scale(37.09 2.5963)">
<stop offset="0.11" stop-color="#666666"/>
<stop offset="0.29" stop-color="#7C7C7C" stop-opacity="0.85"/>
<stop offset="0.63" stop-color="#B7B7B7" stop-opacity="0.47"/>
<stop offset="1" stop-color="white" stop-opacity="0"/>
</radialGradient>
<linearGradient id="paint1_linear" x1="3.44996" y1="36.45" x2="72.17" y2="36.45" gradientUnits="userSpaceOnUse">
<stop stop-color="#FA71CD"/>
<stop offset="1" stop-color="#C471F5"/>
</linearGradient>
<linearGradient id="paint2_linear" x1="49432.9" y1="16075.3" x2="49486" y2="18839.6" gradientUnits="userSpaceOnUse">
<stop offset="0.11" stop-color="#666666"/>
<stop offset="0.29" stop-color="#7C7C7C" stop-opacity="0.85"/>
<stop offset="0.63" stop-color="#B7B7B7" stop-opacity="0.47"/>
<stop offset="1" stop-color="white" stop-opacity="0"/>
</linearGradient>
<linearGradient id="paint3_linear" x1="41.08" y1="12.78" x2="31.6" y2="57.03" gradientUnits="userSpaceOnUse">
<stop stop-color="#764BA2"/>
<stop offset="1" stop-color="#667EEA"/>
</linearGradient>
<linearGradient id="paint4_linear" x1="50711.9" y1="16082.2" x2="48204.3" y2="17153.5" gradientUnits="userSpaceOnUse">
<stop offset="0.11" stop-color="#666666"/>
<stop offset="0.29" stop-color="#7C7C7C" stop-opacity="0.85"/>
<stop offset="0.63" stop-color="#B7B7B7" stop-opacity="0.47"/>
<stop offset="1" stop-color="white" stop-opacity="0"/>
</linearGradient>
<linearGradient id="paint5_linear" x1="3.44998" y1="19.05" x2="72.16" y2="19.05" gradientUnits="userSpaceOnUse">
<stop stop-color="#4FACFE"/>
<stop offset="1" stop-color="#00F2FE"/>
</linearGradient>
<linearGradient id="paint6_linear" x1="3.46" y1="24.1" x2="72.16" y2="24.1" gradientUnits="userSpaceOnUse">
<stop stop-color="#00EDFF"/>
<stop offset="1" stop-color="#00F2FE" stop-opacity="0"/>
</linearGradient>
<linearGradient id="paint7_linear" x1="3874.53" y1="1433.57" x2="3867.64" y2="1464.89" gradientUnits="userSpaceOnUse">
<stop stop-color="#FA71CD"/>
<stop offset="1" stop-color="#C471F5"/>
</linearGradient>
<linearGradient id="paint8_linear" x1="23.13" y1="55.96" x2="44.49" y2="59.18" gradientUnits="userSpaceOnUse">
<stop stop-color="#FF99F5"/>
<stop offset="0.99" stop-color="#C471F5" stop-opacity="0"/>
</linearGradient>
<linearGradient id="paint9_linear" x1="2877.32" y1="1053.73" x2="2875.3" y2="1069.36" gradientUnits="userSpaceOnUse">
<stop stop-color="#FA71CD"/>
<stop offset="1" stop-color="#C471F5"/>
</linearGradient>
<linearGradient id="paint10_linear" x1="2011.87" y1="692.874" x2="2010.56" y2="699.516" gradientUnits="userSpaceOnUse">
<stop stop-color="#FA71CD"/>
<stop offset="1" stop-color="#C471F5"/>
</linearGradient>
<linearGradient id="paint11_linear" x1="21.17" y1="62.44" x2="30.75" y2="21.23" gradientUnits="userSpaceOnUse">
<stop stop-color="#90A8FC"/>
<stop offset="1" stop-color="#667EEA" stop-opacity="0"/>
</linearGradient>
</defs>
</svg>
